<?xml version="1.0" encoding="utf-8"?>
<!-- Generator: Adobe Illustrator 18.1.1, SVG Export Plug-In . SVG Version: 6.00 Build 0)  -->
<!DOCTYPE svg PUBLIC "-//W3C//DTD SVG 1.1//EN" "http://www.w3.org/Graphics/SVG/1.1/DTD/svg11.dtd">
<svg version="1.1" id="Layer_1" xmlns="http://www.w3.org/2000/svg" xmlns:xlink="http://www.w3.org/1999/xlink" x="0px" y="0px"
	 width="149.25px" height="19.35px" viewBox="-64 114.2 298.5 38.7" enable-background="new -64 114.2 298.5 38.7"
	 xml:space="preserve">
<g>
	<path fill="#333333" d="M-37,143.6c0.2,0,0.5,0.2,0.7,0.4l1.9,2.1c-1.4,1.8-3.2,3-5.3,3.9c-2.1,0.9-4.6,1.4-7.4,1.4
		c-2.5,0-4.7-0.4-6.9-1.2c-2.1-0.9-3.9-2.1-5.3-3.7c-1.4-1.6-2.6-3.5-3.3-5.6c-0.9-2.3-1.2-4.6-1.2-7.4c0-2.6,0.4-5.1,1.2-7.4
		c0.9-2.3,1.9-4,3.5-5.6c1.2-1.8,3.2-3,5.3-3.9s4.4-1.2,7-1.2c2.5,0,4.7,0.4,6.7,1.2s3.7,1.9,5.1,3.3l-1.8,1.9
		c-0.2,0.2-0.2,0.4-0.4,0.4c-0.2,0.2-0.4,0.2-0.7,0.2s-0.7-0.2-1.1-0.5c-0.4-0.4-1.1-0.7-1.8-1.1c-0.7-0.4-1.6-0.7-2.6-1.1
		c-0.9-0.2-2.1-0.4-3.7-0.4c-1.8,0-3.5,0.4-4.9,0.9c-1.6,0.7-2.8,1.6-3.9,2.8c-1.1,1.2-1.9,2.6-2.6,4.4c-0.7,1.8-0.9,3.7-0.9,5.8
		c0,2.3,0.4,4.2,0.9,5.8c0.7,1.8,1.4,3.2,2.6,4.4c1.1,1.2,2.5,2.1,3.9,2.6c1.4,0.7,3.2,0.9,4.7,0.9c1.1,0,1.9,0,2.8-0.2
		s1.6-0.4,2.3-0.5c0.7-0.4,1.4-0.5,1.9-1.1c0.5-0.4,1.2-0.9,1.8-1.4C-37.7,143.6-37.3,143.6-37,143.6z"/>
	<path fill="#333333" d="M-30.5,150.8v-36.2h4.4v14.6c1.1-1.1,2.3-2.1,3.5-2.6c1.2-0.7,2.8-1.1,4.4-1.1c1.4,0,2.6,0.2,3.5,0.7
		c1.1,0.5,1.9,1.1,2.6,1.9c0.7,0.9,1.2,1.8,1.6,3c0.4,1.2,0.5,2.5,0.5,3.9v15.8h-4.4V135c0-1.9-0.4-3.3-1.2-4.4
		c-0.9-1.1-2.1-1.6-3.9-1.6c-1.2,0-2.5,0.4-3.7,0.9c-1.1,0.7-2.1,1.4-3.2,2.5v18.3h-4.2V150.8z"/>
	<path fill="#333333" d="M12.4,150.8c-0.4,0-0.7,0-1.1-0.2c-0.2-0.2-0.4-0.4-0.5-0.9l-0.5-2.3c-0.7,0.5-1.2,1.1-1.9,1.6
		c-0.7,0.5-1.2,0.9-1.9,1.2c-0.7,0.4-1.4,0.5-2.1,0.7s-1.6,0.2-2.6,0.2s-1.9-0.2-2.8-0.4c-0.9-0.4-1.6-0.7-2.3-1.2
		c-0.7-0.5-1.1-1.2-1.6-2.1c-0.4-0.9-0.5-1.8-0.5-3c0-1.1,0.4-1.9,0.9-2.8c0.5-0.9,1.4-1.8,2.6-2.5s2.8-1.2,4.7-1.8
		c1.9-0.5,4.4-0.7,7.2-0.7v-1.9c0-1.9-0.4-3.3-1.2-4.4c-0.9-1.1-2.1-1.4-3.7-1.4c-1.1,0-1.9,0.2-2.6,0.4c-0.7,0.4-1.4,0.5-1.9,0.9
		s-1.1,0.7-1.4,0.9c-0.4,0.4-0.7,0.4-1.2,0.4c-0.4,0-0.5,0-0.7-0.2c-0.2-0.2-0.4-0.4-0.5-0.5l-0.7-1.4c1.4-1.2,2.8-2.3,4.4-3
		s3.3-1.1,5.3-1.1c1.4,0,2.6,0.2,3.7,0.7c1.1,0.5,1.9,1.1,2.8,1.9c0.7,0.9,1.2,1.8,1.8,3c0.4,1.2,0.5,2.5,0.5,3.9v16
		C14.4,150.8,12.4,150.8,12.4,150.8z M2.9,148.1c0.7,0,1.4,0,2.1-0.2s1.2-0.4,1.8-0.7c0.5-0.4,1.1-0.7,1.6-1.1
		c0.5-0.4,1.1-0.9,1.6-1.4v-5.1c-1.9,0-3.7,0.2-5.1,0.5c-1.4,0.2-2.6,0.5-3.5,1.1c-0.9,0.4-1.6,0.9-1.9,1.4
		c-0.4,0.5-0.5,1.2-0.5,1.9c0,0.7,0.2,1.2,0.4,1.8c0.2,0.5,0.5,0.9,0.9,1.2c0.4,0.4,0.9,0.5,1.2,0.7C1.9,148,2.4,148.1,2.9,148.1z"
		/>
	<path fill="#333333" d="M20.5,150.8v-25h2.6c0.7,0,1.1,0.4,1.2,0.9l0.4,2.6c1.1-1.2,2.3-2.1,3.7-3c1.4-0.7,2.8-1.1,4.6-1.1
		c1.4,0,2.6,0.2,3.5,0.7c1.1,0.5,1.9,1.1,2.6,1.9c0.7,0.9,1.2,1.8,1.6,3c0.4,1.2,0.5,2.5,0.5,3.9v15.8h-4.4v-15.8
		c0-1.9-0.4-3.3-1.2-4.4c-0.9-1.1-2.1-1.6-3.9-1.6c-1.2,0-2.5,0.4-3.7,0.9c-1.1,0.7-2.1,1.4-3.2,2.5v18.3h-4.4V150.8z"/>
	<path fill="#333333" d="M47.4,150.8v-25h2.6c0.7,0,1.1,0.4,1.2,0.9l0.4,2.6c1.1-1.2,2.3-2.1,3.7-3c1.4-0.7,2.8-1.1,4.6-1.1
		c1.4,0,2.6,0.2,3.5,0.7c1.1,0.5,1.9,1.2,2.6,2.1c0.7,0.9,1.2,1.8,1.6,3c0.4,1.2,0.5,2.5,0.5,3.9v15.8h-4.4V135
		c0-1.9-0.4-3.3-1.2-4.4c-0.9-1.1-2.1-1.6-3.9-1.6c-1.2,0-2.5,0.4-3.7,0.9c-1.1,0.7-2.1,1.4-3.2,2.5v18.3h-4.4V150.8z"/>
	<path fill="#333333" d="M84.5,125.5c1.4,0,2.8,0.2,4.2,0.7c1.2,0.5,2.3,1.2,3.3,2.1c0.9,0.9,1.6,2.1,2.1,3.5c0.5,1.4,0.7,3,0.7,4.7
		c0,0.7,0,1.2-0.2,1.4c-0.2,0.2-0.4,0.4-0.9,0.4H77.2c0,1.6,0.2,3,0.7,4c0.4,1.2,0.9,2.1,1.6,3c0.7,0.7,1.6,1.4,2.5,1.8
		s1.9,0.5,3.2,0.5c1.1,0,2.1-0.2,2.8-0.4c0.9-0.2,1.4-0.5,2.1-0.9c0.5-0.4,1.1-0.5,1.4-0.9c0.4-0.2,0.7-0.4,1.1-0.4
		c0.4,0,0.7,0.2,0.9,0.4l1.2,1.6c-0.5,0.7-1.2,1.2-1.9,1.8c-0.7,0.5-1.6,0.9-2.5,1.2s-1.8,0.5-2.6,0.7s-1.8,0.2-2.8,0.2
		c-1.8,0-3.3-0.4-4.7-0.9c-1.4-0.5-2.6-1.4-3.7-2.6c-1.1-1.1-1.9-2.5-2.5-4.2c-0.5-1.6-0.9-3.5-0.9-5.6c0-1.8,0.4-3.3,0.9-4.9
		s1.2-2.8,2.3-3.9c1.1-1.1,2.3-1.9,3.7-2.6C81.2,125.8,82.8,125.5,84.5,125.5z M84.7,128.6c-2.1,0-3.7,0.5-4.9,1.8
		c-1.2,1.2-1.9,3-2.3,5.1h13.7c0-1.1-0.2-1.9-0.4-2.8c-0.4-0.9-0.7-1.6-1.2-2.1c-0.5-0.7-1.2-1.1-1.9-1.4
		C86.7,128.8,85.8,128.6,84.7,128.6z"/>
	<path fill="#333333" d="M104.4,114.6v36.2H100v-36.2H104.4z"/>
	<path fill="#B31217" d="M130.1,142.2c0.2-0.2,0.2-0.5,0.4-0.7c0.2-0.4,0.2-0.5,0.4-0.7l13.7-24.3c0.2-0.2,0.4-0.4,0.4-0.4
		c0.2,0,0.4,0,0.5,0h1.8V151H145v-29.9c0-0.2,0-0.4,0-0.7c0-0.2,0-0.5,0-0.7l-13.7,24.3c-0.2,0.4-0.5,0.7-1.1,0.7h-0.4
		c-0.4,0-0.7-0.2-1.1-0.7l-14.1-24.4c0,0.5,0,0.9,0,1.4v29.7h-2.3V116h1.8c0.2,0,0.4,0,0.5,0c0.2,0,0.2,0.2,0.4,0.4l14.1,24.3
		C129.7,141.1,129.9,141.6,130.1,142.2z"/>
	<path fill="#B31217" d="M164.6,126c1.4,0,2.6,0.2,3.9,0.7c1.2,0.5,2.3,1.2,3,2.1c0.9,0.9,1.6,2.1,2.1,3.3c0.5,1.4,0.7,2.8,0.7,4.6
		c0,0.4,0,0.5-0.2,0.7c-0.2,0.2-0.2,0.2-0.5,0.2h-17.8v0.5c0,1.8,0.2,3.5,0.7,4.9c0.4,1.4,1.1,2.6,1.8,3.5c0.7,0.9,1.8,1.6,2.8,2.1
		c1.1,0.5,2.3,0.7,3.7,0.7c1.2,0,2.3-0.2,3.2-0.4c0.9-0.4,1.6-0.5,2.3-0.9c0.5-0.4,1.1-0.7,1.4-0.9c0.4-0.4,0.7-0.4,0.7-0.4
		c0.2,0,0.4,0,0.5,0.2l0.7,0.7c-0.4,0.5-0.9,0.9-1.6,1.4c-0.7,0.4-1.4,0.7-2.1,1.1c-0.7,0.4-1.6,0.5-2.6,0.7
		c-0.9,0.2-1.8,0.4-2.8,0.4c-1.8,0-3.2-0.4-4.6-0.9c-1.4-0.5-2.6-1.4-3.5-2.5c-1.1-1.1-1.8-2.5-2.3-4c-0.5-1.6-0.9-3.5-0.9-5.6
		c0-1.8,0.2-3.3,0.7-4.9c0.5-1.4,1.2-2.8,2.1-3.9c0.9-1.1,2.1-1.9,3.5-2.5C161.2,126.2,162.8,126,164.6,126z M164.6,127.7
		c-1.2,0-2.5,0.2-3.3,0.5c-1.1,0.4-1.9,0.9-2.6,1.8c-0.7,0.7-1.4,1.6-1.8,2.6c-0.5,1.1-0.7,2.1-0.9,3.5h16.2c0-1.2-0.2-2.5-0.5-3.5
		c-0.4-1.1-0.9-1.9-1.6-2.6c-0.7-0.7-1.4-1.2-2.5-1.6C166.7,127.9,165.8,127.7,164.6,127.7z"/>
	<path fill="#B31217" d="M186.7,151.1c-1.6,0-3-0.5-3.9-1.4c-0.9-0.9-1.4-2.3-1.4-4.2v-16.7h-3.5c-0.2,0-0.4,0-0.5-0.2
		c-0.2-0.2-0.2-0.2-0.2-0.4v-0.9l4.2-0.4l0.5-8.8c0-0.2,0.2-0.4,0.2-0.4c0.2-0.2,0.2-0.2,0.4-0.2h1.1v9.3h7.7v1.8h-7.7v16.5
		c0,0.7,0,1.2,0.2,1.8c0.2,0.5,0.4,0.9,0.7,1.2c0.4,0.4,0.7,0.5,1.1,0.7c0.4,0.2,0.9,0.2,1.4,0.2s1.1,0,1.6-0.2
		c0.4-0.2,0.9-0.4,1.1-0.5c0.4-0.2,0.5-0.4,0.7-0.5c0.2-0.2,0.4-0.2,0.5-0.2c0.2,0,0.2,0,0.4,0.2l0.7,1.1c-0.7,0.7-1.4,1.2-2.3,1.6
		C188.7,151,187.8,151.1,186.7,151.1z"/>
	<path fill="#B31217" d="M205.9,126c1.4,0,2.6,0.2,3.9,0.7c1.2,0.5,2.3,1.2,3,2.1c0.9,0.9,1.6,2.1,2.1,3.3c0.5,1.4,0.7,2.8,0.7,4.6
		c0,0.4,0,0.5-0.2,0.7s-0.2,0.2-0.5,0.2h-17.8v0.5c0,1.8,0.2,3.5,0.7,4.9c0.4,1.4,1.1,2.6,1.8,3.5c0.7,0.9,1.8,1.6,2.8,2.1
		s2.3,0.7,3.7,0.7c1.2,0,2.3-0.2,3.2-0.4c0.9-0.4,1.6-0.5,2.3-0.9c0.5-0.4,1.1-0.7,1.4-0.9c0.4-0.4,0.7-0.4,0.7-0.4
		c0.2,0,0.4,0,0.5,0.2l0.7,0.7c-0.4,0.5-0.9,0.9-1.6,1.4c-0.7,0.4-1.4,0.7-2.1,1.1c-0.7,0.4-1.6,0.5-2.6,0.7
		c-0.9,0.2-1.8,0.4-2.8,0.4c-1.8,0-3.2-0.4-4.6-0.9c-1.4-0.5-2.6-1.4-3.5-2.5c-1.1-1.1-1.8-2.5-2.3-4c-0.5-1.6-0.9-3.5-0.9-5.6
		c0-1.8,0.2-3.3,0.7-4.9c0.5-1.4,1.2-2.8,2.1-3.9c0.9-1.1,2.1-1.9,3.5-2.5C202.5,126.2,204.1,126,205.9,126z M205.9,127.7
		c-1.2,0-2.5,0.2-3.3,0.5c-1.1,0.4-1.9,0.9-2.6,1.8c-0.7,0.7-1.4,1.6-1.8,2.6c-0.5,1.1-0.7,2.1-0.9,3.5h16.2c0-1.2-0.2-2.5-0.5-3.5
		c-0.4-1.1-0.9-1.9-1.6-2.6c-0.7-0.7-1.4-1.2-2.5-1.6C208,127.9,207.1,127.7,205.9,127.7z"/>
	<path fill="#B31217" d="M221.5,150.8v-24.4h1.2c0.4,0,0.5,0,0.5,0.2c0.2,0.2,0.2,0.4,0.2,0.5l0.2,5.1c0.4-1.1,0.9-1.9,1.2-2.6
		c0.5-0.7,1.1-1.4,1.8-1.9c0.7-0.5,1.4-0.9,2.1-1.2c0.7-0.4,1.6-0.4,2.6-0.4c0.5,0,1.1,0,1.6,0.2c0.5,0.2,0.9,0.2,1.2,0.5l-0.2,1.4
		c0,0.4-0.2,0.4-0.5,0.4c-0.2,0-0.5,0-0.9-0.2s-0.9-0.2-1.6-0.2c-0.9,0-1.8,0.2-2.5,0.5c-0.7,0.4-1.4,0.7-1.9,1.2
		c-0.5,0.5-1.1,1.2-1.6,2.1c-0.4,0.9-0.9,1.8-1.2,3v15.8C223.8,150.8,221.5,150.8,221.5,150.8z"/>
</g>
</svg>
